<?xml version="1.0" encoding="UTF-8" standalone="no"?>
<!DOCTYPE svg PUBLIC "-//W3C//DTD SVG 1.1//EN" "http://www.w3.org/Graphics/SVG/1.1/DTD/svg11.dtd">
<!-- Created with Vectornator (http://vectornator.io/) -->
<svg height="100%" stroke-miterlimit="10" style="fill-rule:nonzero;clip-rule:evenodd;stroke-linecap:round;stroke-linejoin:round;" version="1.1" viewBox="0 0 512 512" width="100%" xml:space="preserve" xmlns="http://www.w3.org/2000/svg" xmlns:vectornator="http://vectornator.io" xmlns:xlink="http://www.w3.org/1999/xlink">
<defs/>
<g id="Layer-1" vectornator:layerName="Layer 1">
<g opacity="1">
<path d="M450.404 119.889L340.361 11.9829C336.515 8.35043 330.96 6 326.259 6C314.934 6 307.242 13.6923 307.242 24.8034C307.242 30.359 309.165 34.6325 312.797 38.265L358.737 82.7094L398.481 117.111L349.122 114.974L74.5493 114.974C63.2245 114.974 55.3185 122.88 55.3185 134.205C55.3185 145.316 63.2245 153.222 74.5493 153.222L349.122 153.222L398.481 151.299L358.737 185.487L312.797 230.145C309.165 233.778 307.242 237.838 307.242 243.393C307.242 254.504 314.934 262.197 326.259 262.197C330.96 262.197 336.515 260.06 340.361 256.214L450.404 148.521C458.737 140.615 459.165 128.009 450.404 119.889ZM61.5151 392.325L171.985 500.017C175.618 503.863 181.173 506 186.088 506C197.413 506 204.891 498.308 204.891 487.197C204.891 481.641 203.182 477.581 199.549 473.949L153.609 429.504L113.652 395.103L163.011 397.026L437.583 397.026C448.695 397.026 456.814 389.12 456.814 378.009C456.814 366.684 448.695 358.778 437.583 358.778L163.011 358.778L113.652 360.915L153.609 326.513L199.549 282.068C203.182 278.436 204.891 274.162 204.891 268.821C204.891 257.709 197.413 249.803 186.088 249.803C181.173 249.803 175.618 252.154 171.985 256L61.5151 363.692C53.1818 371.598 52.9681 383.991 61.5151 392.325Z" fill="#52aeff" fill-rule="nonzero" opacity="1" stroke="none"/>
</g>
</g>
</svg>
